{
  "accessors": [
    {
      "bufferView": 2,
      "componentType": 5126,
      "count": 2672,
      "max": [
        0.91547703742980957,
        1.5970208644866943,
        1.625312328338623
      ],
      "min": [
        -0.91547703742980957,
        -0.97337889671325684,
        -2.7165186405181885
      ],
      "type": "VEC3"
    },
    {
      "bufferView": 2,
      "byteOffset": 32064,
      "componentType": 5126,
      "count": 2672,
      "max": [
        0.9999929666519165,
        0.99840670824050903,
        0.99859148263931274
      ],
      "min": [
        -0.99999290704727173,
        -1,
        -0.99999600648880005
      ],
      "type": "VEC3"
    },
    {
      "bufferView": 3,
      "componentType": 5126,
      "count": 2672,
      "max": [
        1,
        0.99978917837142944,
        0.99999332427978516,
        1
      ],
      "min": [
        -1,
        -0.99996596574783325,
        -0.9999697208404541,
        -1
      ],
      "type": "VEC4"
    },
    {
      "bufferView": 1,
      "componentType": 5126,
      "count": 2672,
      "max": [
        0.99390769004821777,
        0.97899812459945679
      ],
      "min": [
        0.031375899910926819,
        0.036709368228912354
      ],
      "type": "VEC2"
    },
    {
      "bufferView": 0,
      "componentType": 5125,
      "count": 13920,
      "max": [
        2671
      ],
      "min": [
        0
      ],
      "type": "SCALAR"
    },
    {
      "bufferView": 2,
      "byteOffset": 64128,
      "componentType": 5126,
      "count": 1041,
      "max": [
        0.73362565040588379,
        1.5970209836959839,
        -0.41976600885391235
      ],
      "min": [
        -0.73362541198730469,
        -0.59478753805160522,
        -2.7165188789367676
      ],
      "type": "VEC3"
    },
    {
      "bufferView": 2,
      "byteOffset": 76620,
      "componentType": 5126,
      "count": 1041,
      "max": [
        0.99957716464996338,
        0.99633902311325073,
        0.98545664548873901
      ],
      "min": [
        -0.99984371662139893,
        -0.97229021787643433,
        -0.99963986873626709
      ],
      "type": "VEC3"
    },
    {
      "bufferView": 3,
      "byteOffset": 42752,
      "componentType": 5126,
      "count": 1041,
      "max": [
        0.99995875358581543,
        0.99793374538421631,
        0.99998289346694946,
        1
      ],
      "min": [
        -0.99995875358581543,
        -0.98413830995559692,
        -0.99966192245483398,
        -1
      ],
      "type": "VEC4"
    },
    {
      "bufferView": 1,
      "byteOffset": 21376,
      "componentType": 5126,
      "count": 1041,
      "max": [
        0.95196294784545898,
        0.93840044736862183
      ],
      "min": [
        0.16235947608947754,
        0.029184639453887939
      ],
      "type": "VEC2"
    },
    {
      "bufferView": 0,
      "byteOffset": 55680,
      "componentType": 5125,
      "count": 5376,
      "max": [
        1040
      ],
      "min": [
        0
      ],
      "type": "SCALAR"
    },
    {
      "bufferView": 2,
      "byteOffset": 89112,
      "componentType": 5126,
      "count": 1041,
      "max": [
        0.82589519023895264,
        1.5698972940444946,
        -0.4112970232963562
      ],
      "min": [
        -0.76582741737365723,
        -0.60413414239883423,
        -2.7165188789367676
      ],
      "type": "VEC3"
    },
    {
      "bufferView": 2,
      "byteOffset": 101604,
      "componentType": 5126,
      "count": 1041,
      "max": [
        0.99949532747268677,
        0.99417144060134888,
        0.79924178123474121
      ],
      "min": [
        -0.99984371662139893,
        -0.97229021787643433,
        -0.99793374538421631
      ],
      "type": "VEC3"
    },
    {
      "bufferView": 3,
      "byteOffset": 59408,
      "componentType": 5126,
      "count": 1041,
      "max": [
        0.99805229902267456,
        0.99793374538421631,
        0.9995572566986084,
        1
      ],
      "min": [
        -0.99775516986846924,
        -0.87763667106628418,
        -0.98564273118972778,
        -1
      ],
      "type": "VEC4"
    },
    {
      "bufferView": 1,
      "byteOffset": 29704,
      "componentType": 5126,
      "count": 1041,
      "max": [
        0.95196294784545898,
        0.93840044736862183
      ],
      "min": [
        0.16235947608947754,
        0.029184639453887939
      ],
      "type": "VEC2"
    },
    {
      "bufferView": 0,
      "byteOffset": 77184,
      "componentType": 5125,
      "count": 5376,
      "max": [
        1040
      ],
      "min": [
        0
      ],
      "type": "SCALAR"
    },
    {
      "bufferView": 2,
      "byteOffset": 114096,
      "componentType": 5126,
      "count": 305,
      "max": [
        0.46044355630874634,
        0.38309314846992493,
        0.1296345591545105
      ],
      "min": [
        -0.46044355630874634,
        -1.8540818691253662,
        -0.22391179203987122
      ],
      "type": "VEC3"
    },
    {
      "bufferView": 2,
      "byteOffset": 117756,
      "componentType": 5126,
      "count": 305,
      "max": [
        0.99190801382064819,
        0.67914813756942749,
        0.99939894676208496
      ],
      "min": [
        -0.9915892481803894,
        -0.99047315120697021,
        -1
      ],
      "type": "VEC3"
    },
    {
      "bufferView": 3,
      "byteOffset": 76064,
      "componentType": 5126,
      "count": 305,
      "max": [
        1,
        0.99105221033096313,
        0.74861669540405273,
        1
      ],
      "min": [
        -0.69716405868530273,
        -0.99249887466430664,
        -0.74851894378662109,
        1
      ],
      "type": "VEC4"
    },
    {
      "bufferView": 0,
      "byteOffset": 98688,
      "componentType": 5125,
      "count": 1536,
      "max": [
        304
      ],
      "min": [
        0
      ],
      "type": "SCALAR"
    }
  ],
  "asset": {
    "extras": {
      "author": "Callie Koch (https://sketchfab.com/calliekoch)",
      "license": "CC-BY-4.0 (http://creativecommons.org/licenses/by/4.0/)",
      "source": "https://sketchfab.com/models/6d001280a7424798ad348f7575e965da",
      "title": "Cerberus Corgi"
    },
    "generator": "Sketchfab-3.19.4",
    "version": "2.0"
  },
  "bufferViews": [
    {
      "buffer": 0,
      "byteLength": 104832,
      "byteOffset": 0,
      "name": "floatBufferViews",
      "target": 34963
    },
    {
      "buffer": 0,
      "byteLength": 38032,
      "byteOffset": 104832,
      "byteStride": 8,
      "name": "floatBufferViews",
      "target": 34962
    },
    {
      "buffer": 0,
      "byteLength": 121416,
      "byteOffset": 142864,
      "byteStride": 12,
      "name": "floatBufferViews",
      "target": 34962
    },
    {
      "buffer": 0,
      "byteLength": 80944,
      "byteOffset": 264280,
      "byteStride": 16,
      "name": "floatBufferViews",
      "target": 34962
    }
  ],
  "buffers": [
    {
      "byteLength": 345224,
      "uri": "scene.bin"
    }
  ],
  "images": [
    {
      "uri": "textures/lambert2_baseColor.png"
    },
    {
      "uri": "textures/Head_baseColor.png"
    },
    {
      "uri": "textures/Head_metallicRoughness.png"
    }
  ],
  "materials": [
    {
      "doubleSided": true,
      "emissiveFactor": [
        0,
        0,
        0
      ],
      "name": "lambert2",
      "pbrMetallicRoughness": {
        "baseColorFactor": [
          1,
          1,
          1,
          1
        ],
        "baseColorTexture": {
          "index": 0,
          "texCoord": 0
        },
        "metallicFactor": 0,
        "roughnessFactor": 0.59584603660000002
      }
    },
    {
      "doubleSided": true,
      "emissiveFactor": [
        0,
        0,
        0
      ],
      "name": "Head",
      "pbrMetallicRoughness": {
        "baseColorFactor": [
          1,
          1,
          1,
          1
        ],
        "baseColorTexture": {
          "index": 1,
          "texCoord": 0
        },
        "metallicFactor": 0,
        "metallicRoughnessTexture": {
          "index": 2,
          "texCoord": 0
        },
        "roughnessFactor": 0.60194359760000005
      }
    },
    {
      "doubleSided": true,
      "emissiveFactor": [
        0,
        0,
        0
      ],
      "name": "Tongue",
      "pbrMetallicRoughness": {
        "baseColorFactor": [
          0.62810550949999999,
          0.23886218870000001,
          0.23886218870000001,
          1
        ],
        "metallicFactor": 0,
        "roughnessFactor": 0.4921875
      }
    }
  ],
  "meshes": [
    {
      "name": "pCube1_lambert2_0",
      "primitives": [
        {
          "attributes": {
            "NORMAL": 1,
            "POSITION": 0,
            "TANGENT": 2,
            "TEXCOORD_0": 3
          },
          "indices": 4,
          "material": 0,
          "mode": 4
        }
      ]
    },
    {
      "name": "polySurface2_Head_0",
      "primitives": [
        {
          "attributes": {
            "NORMAL": 6,
            "POSITION": 5,
            "TANGENT": 7,
            "TEXCOORD_0": 8
          },
          "indices": 9,
          "material": 1,
          "mode": 4
        }
      ]
    },
    {
      "name": "polySurface3_Head_0",
      "primitives": [
        {
          "attributes": {
            "NORMAL": 11,
            "POSITION": 10,
            "TANGENT": 12,
            "TEXCOORD_0": 13
          },
          "indices": 14,
          "material": 1,
          "mode": 4
        }
      ]
    },
    {
      "name": "pCube3_Tongue_0",
      "primitives": [
        {
          "attributes": {
            "NORMAL": 16,
            "POSITION": 15,
            "TANGENT": 17
          },
          "indices": 18,
          "material": 2,
          "mode": 4
        }
      ]
    }
  ],
  "nodes": [
    {
      "children": [
        1
      ],
      "name": "RootNode (gltf orientation matrix)",
      "rotation": [
        -0.70710678118654746,
        -0,
        -0,
        0.70710678118654757
      ]
    },
    {
      "children": [
        2
      ],
      "name": "RootNode (model correction matrix)"
    },
    {
      "children": [
        3
      ],
      "matrix": [
        1,
        0,
        0,
        0,
        0,
        0,
        1,
        0,
        0,
        -1,
        0,
        0,
        0,
        0,
        0,
        1
      ],
      "name": "6a13555613494ab39d3b9f1ca2de610b.fbx"
    },
    {
      "children": [
        4,
        6,
        11
      ],
      "name": "RootNode"
    },
    {
      "children": [
        5
      ],
      "matrix": [
        -5.0146455764770508,
        6.141169654091053e-16,
        -6.141169654091055e-16,
        0,
        6.141169654091053e-16,
        5.0146455764770508,
        6.141169654091053e-16,
        0,
        6.141169654091055e-16,
        6.141169654091053e-16,
        -5.0146455764770508,
        0,
        0,
        4.9617190361022949,
        0,
        1
      ],
      "name": "pCube1"
    },
    {
      "mesh": 0,
      "name": "pCube1_lambert2_0"
    },
    {
      "children": [
        7,
        9
      ],
      "matrix": [
        -5.0146455764770508,
        6.141169654091053e-16,
        -6.141169654091055e-16,
        0,
        6.141169654091053e-16,
        5.0146455764770508,
        6.141169654091053e-16,
        0,
        6.141169654091055e-16,
        6.141169654091053e-16,
        -5.0146455764770508,
        0,
        9.4722213745117188,
        4.9617190361022949,
        1.16001257417683e-15,
        1
      ],
      "name": "pCube2"
    },
    {
      "children": [
        8
      ],
      "matrix": [
        0.70392667562781186,
        -0.014524394435236621,
        -0.71012412809724124,
        0,
        -0.10444496589585373,
        0.98680564400799231,
        -0.12371689477587766,
        0,
        0.70255141053063963,
        0.16125651279951858,
        0.6931218165958617,
        0,
        2.170698881149292,
        0.3156065046787262,
        -0.12693187594413757,
        1
      ],
      "name": "polySurface2"
    },
    {
      "mesh": 1,
      "name": "polySurface2_Head_0"
    },
    {
      "children": [
        10
      ],
      "matrix": [
        0.53171843722422918,
        0.055531040111739927,
        0.84509869666207149,
        0,
        0.28256635229975757,
        0.92904020580242008,
        -0.23883164059773646,
        0,
        -0.79839323648427341,
        0.36578764274740805,
        0.47829660290395315,
        0,
        1.3373793363571167,
        0.45803141593933105,
        -0.39455989003181458,
        1
      ],
      "name": "polySurface3"
    },
    {
      "mesh": 2,
      "name": "polySurface3_Head_0"
    },
    {
      "children": [
        12
      ],
      "matrix": [
        0.52379803219330434,
        0.038920056295427358,
        -0.28161428111408515,
        0,
        0.03254243266939371,
        0.24586061296275469,
        0.094507178354241037,
        0,
        0.95630539740901821,
        -0.76942766671377594,
        1.6723751202238462,
        0,
        0.51219213008880615,
        6.7439184188842773,
        13.439676284790039,
        1
      ],
      "name": "pCube3"
    },
    {
      "mesh": 3,
      "name": "pCube3_Tongue_0"
    }
  ],
  "samplers": [
    {
      "magFilter": 9729,
      "minFilter": 9987,
      "wrapS": 10497,
      "wrapT": 10497
    }
  ],
  "scene": 0,
  "scenes": [
    {
      "name": "OSG_Scene",
      "nodes": [
        0
      ]
    }
  ],
  "textures": [
    {
      "sampler": 0,
      "source": 0
    },
    {
      "sampler": 0,
      "source": 1
    },
    {
      "sampler": 0,
      "source": 2
    }
  ]
}

